<svg xmlns="http://www.w3.org/2000/svg" width="28" height="27" viewBox="0 0 28 27"><defs><style>.a{fill:#3096ef;}.b{fill:#fff;stroke:#3096ef;stroke-width:2px;stroke-dasharray:2 1;}.c{stroke:none;}.d{fill:none;}</style></defs><g transform="translate(-10108.259 930.005)"><path class="a" d="M3.629,1.814A1.816,1.816,0,0,0,1.814,3.629V7.862A1.816,1.816,0,0,0,3.629,9.677H12.7a1.816,1.816,0,0,0,1.814-1.814V3.629A1.816,1.816,0,0,0,12.7,1.814H3.629M3.629,0H12.7A3.629,3.629,0,0,1,16.33,3.629V7.862A3.629,3.629,0,0,1,12.7,11.491H3.629A3.629,3.629,0,0,1,0,7.862V3.629A3.629,3.629,0,0,1,3.629,0Z" transform="translate(10119.929 -914.497)"/><path class="a" d="M0,0H1.814V10.886H0Z" transform="translate(10112.521 -919.393)"/><path class="a" d="M0,0H1.814V7.862H0Z" transform="translate(10120.393 -909.083) rotate(90)"/><g class="b" transform="translate(10108.259 -930.005)"><rect class="c" width="23" height="12" rx="3"/><rect class="d" x="1" y="1" width="21" height="10" rx="2"/></g></g></svg>