<svg xmlns="http://www.w3.org/2000/svg" width="28" height="28" viewBox="0 0 28 28"><defs><style>.a{fill:none;}.b{fill:#3096ef;}</style></defs><rect class="a" width="28" height="28"/><circle class="b" cx="5" cy="5" r="5"/><circle class="b" cx="5" cy="5" r="5" transform="translate(18 9)"/><circle class="b" cx="5" cy="5" r="5" transform="translate(0 18)"/><rect class="b" width="6" height="2" transform="translate(8 5)"/><path class="b" d="M1,0H18a1,1,0,0,1,1,1V2a0,0,0,0,1,0,0H0A0,0,0,0,1,0,2V1A1,1,0,0,1,1,0Z" transform="translate(15 5) rotate(90)"/><rect class="b" width="5" height="2" transform="translate(15 13)"/><rect class="b" width="6" height="2" transform="translate(8 22)"/></svg>