<svg xmlns="http://www.w3.org/2000/svg" xmlns:xlink="http://www.w3.org/1999/xlink" width="28.431" height="30.895" viewBox="0 0 28.431 30.895"><defs><style>.a,.c,.e{fill:none;stroke:#3096ef;}.b{clip-path:url(#a);}.c,.e{stroke-linecap:round;stroke-width:2px;}.c{stroke-miterlimit:10;}.d{fill:#3096ef;}</style><clipPath id="a"><rect class="a" width="28" height="23.288" transform="translate(0 0)"/></clipPath></defs><g transform="translate(0 3)"><g class="b" transform="translate(0 -0.145)"><path class="c" d="M3.062,1H22.049a5.3,5.3,0,0,1,5.178,5.417,5.3,5.3,0,0,1-5.178,5.418H6.065A5.186,5.186,0,0,0,1,17.134a5.186,5.186,0,0,0,5.065,5.3H25.5" transform="translate(-0.114 -0.073)"/></g><circle class="d" cx="3.5" cy="3.5" r="3.5" transform="translate(0 -3)"/><path class="e" d="M10135.037-824.663l-5.592-4" transform="translate(-10108.002 847.163)"/><path class="e" d="M10135.037-828.149l-5.592,4" transform="translate(-10108.002 850.649)"/></g></svg>