<svg xmlns="http://www.w3.org/2000/svg" width="28" height="28" viewBox="0 0 28 28"><defs><style>.a{fill:none;}.b{fill:#3096ef;}.c{fill:#fff;stroke:#3096ef;stroke-width:2px;stroke-dasharray:2 1;}.d{stroke:none;}</style></defs><g transform="translate(-10108.259 931.005)"><rect class="a" width="28" height="28" transform="translate(10108.259 -931.005)"/><path class="b" d="M3.771,1.885A1.888,1.888,0,0,0,1.885,3.771v4.4a1.888,1.888,0,0,0,1.885,1.885H20.112A1.888,1.888,0,0,0,22,8.17v-4.4a1.888,1.888,0,0,0-1.885-1.885H3.771M3.771,0H20.112a3.771,3.771,0,0,1,3.771,3.771v4.4a3.771,3.771,0,0,1-3.771,3.771H3.771A3.771,3.771,0,0,1,0,8.17v-4.4A3.771,3.771,0,0,1,3.771,0Z" transform="translate(10108.259 -931.005)"/><rect class="b" width="1.74" height="11.307" transform="translate(10112.462 -920.086)"/><rect class="b" width="1.74" height="7.828" transform="translate(10120.249 -908.947) rotate(90)"/><g class="c" transform="translate(10117.259 -914.005)"><rect class="d" width="19" height="11" rx="3"/><rect class="a" x="1" y="1" width="17" height="9" rx="2"/></g></g></svg>