<svg xmlns="http://www.w3.org/2000/svg" width="28" height="28" viewBox="0 0 28 28"><defs><style>.a{fill:none;}.b{fill:#3096ef;}</style></defs><g transform="translate(0)"><rect class="a" width="28" height="28" transform="translate(0)"/><circle class="b" cx="5" cy="5" r="5" transform="translate(18)"/><circle class="b" cx="5" cy="5" r="5" transform="translate(0 9)"/><circle class="b" cx="5" cy="5" r="5" transform="translate(18 18)"/><rect class="b" width="6" height="2" transform="translate(14 5)"/><path class="b" d="M0,0H19a0,0,0,0,1,0,0V1a1,1,0,0,1-1,1H1A1,1,0,0,1,0,1V0A0,0,0,0,1,0,0Z" transform="translate(15 5) rotate(90)"/><rect class="b" width="5" height="2" transform="translate(8 13)"/><rect class="b" width="6" height="2" transform="translate(14 22)"/></g></svg>