<svg xmlns="http://www.w3.org/2000/svg" width="28" height="28" viewBox="0 0 28 28"><defs><style>.a{fill:none;}.b{fill:#3096ef;}</style></defs><rect class="a" width="28" height="28"/><circle class="b" cx="4" cy="4" r="4" transform="translate(10)"/><circle class="b" cx="4" cy="4" r="4" transform="translate(20 8)"/><circle class="b" cx="3" cy="3" r="3" transform="translate(11 12)"/><circle class="b" cx="4" cy="4" r="4" transform="translate(16 20)"/><circle class="b" cx="4" cy="4" r="4" transform="translate(0 8)"/><circle class="b" cx="4" cy="4" r="4" transform="translate(4 20)"/><rect class="b" width="7" height="2" transform="translate(15 7) rotate(90)"/><rect class="b" width="5" height="2" transform="matrix(-0.985, 0.174, -0.174, -0.985, 21.326, 13.99)"/><rect class="b" width="6" height="2" transform="matrix(0.985, 0.174, -0.174, 0.985, 7.418, 11.846)"/><rect class="b" width="6" height="2" transform="translate(9.546 20.682) rotate(-54)"/><rect class="b" width="6" height="2" transform="matrix(-0.588, -0.809, 0.809, -0.588, 16.854, 22.03)"/></svg>