<svg xmlns="http://www.w3.org/2000/svg" width="21.137" height="22.535" viewBox="0 0 21.137 22.535"><defs><style>.a{fill:none;stroke:#3096ef;stroke-miterlimit:10;stroke-width:2px;}</style></defs><g transform="translate(0.234 0.234)"><g transform="translate(0.766 0.766)"><path class="a" d="M17.8,21.535H3.336A2.336,2.336,0,0,1,1,19.2V3.336A2.336,2.336,0,0,1,3.336,1H15.127a2.075,2.075,0,0,1,1.572.72l2.936,3.408a2.072,2.072,0,0,1,.5,1.353V19.2A2.336,2.336,0,0,1,17.8,21.535Z" transform="translate(-1 -1)"/><path class="a" d="M17.047,6.6H10.608a.91.91,0,0,1-.91-.91V1.508h8.258V5.689A.91.91,0,0,1,17.047,6.6Z" transform="translate(-4.532 -1.206)"/><path class="a" d="M17.751,20.619H9.767a.91.91,0,0,0-.91.91v7.65h9.8v-7.65A.91.91,0,0,0,17.751,20.619Z" transform="translate(-4.191 -8.967)"/></g></g></svg>